<?xml version="1.0" encoding="UTF-8"?>
<svg version="1.1" xmlns="http://www.w3.org/2000/svg" width="512" height="512">
<path d="M0 0 C10.37845717 8.06601578 20.35924596 17.55792826 27.0625 28.9375 C27.58553711 29.80785889 27.58553711 29.80785889 28.11914062 30.69580078 C43.14548722 56.03196185 47.73784975 85.35431098 40.90234375 114.1015625 C33.60220008 141.82463258 15.76125645 166.27748073 -9.03759766 180.86767578 C-33.58812778 194.69193985 -63.34827049 199.73900615 -90.9465332 192.77392578 C-119.0010779 184.89884928 -143.42393946 167.60604107 -158.02001953 142.04150391 C-171.85708754 116.88148853 -176.99831842 86.98800824 -169.203125 58.9140625 C-160.39875716 30.30685463 -142.51847267 6.2419907 -116.02587891 -8.09716797 C-78.90139453 -27.36550515 -34.05533649 -24.3445973 0 0 Z M-123.63671875 28.515625 C-140.3338827 46.09158706 -147.63462255 66.75503245 -147.40625 90.71630859 C-146.85737964 109.55228157 -140.38178032 126.68152254 -127.9375 140.9375 C-127.46957031 141.535625 -127.00164062 142.13375 -126.51953125 142.75 C-113.73806239 158.78949034 -93.736619 167.61419126 -73.8125 170.3125 C-52.98167734 172.65451641 -31.74961868 167.14511001 -15 154.4375 C-13.63580038 153.28258101 -12.28137078 152.11601168 -10.9375 150.9375 C-10.215625 150.36902344 -9.49375 149.80054688 -8.75 149.21484375 C6.65111312 136.62122521 16.40903168 116.57098714 18.52734375 96.9453125 C20.6215162 73.58086555 14.08447134 52.3828773 -0.375 34.0625 C-15.38490149 16.59782757 -35.88958591 5.96526108 -58.8125 4.125 C-83.22339857 2.67726346 -105.96024041 11.73598926 -123.63671875 28.515625 Z " fill="#6D7BEC" transform="translate(378.9375,229.0625)"/>
<path d="M0 0 C2.75569447 2.18159145 4.43588747 3.87177494 6 7 C6.09380583 8.62596443 6.12373387 10.25578675 6.12304783 11.88445473 C6.12503888 12.92300531 6.12702993 13.96155589 6.12908131 15.03157771 C6.12471205 16.75625665 6.12471205 16.75625665 6.12025452 18.51577759 C6.12110894 19.73030149 6.12196337 20.94482539 6.12284368 22.19615304 C6.12421044 25.57792318 6.12106835 28.95963597 6.11606562 32.34139919 C6.11176028 35.98420653 6.11320761 39.627012 6.1139679 43.26982117 C6.11449308 49.58476814 6.11134688 55.89970482 6.10573006 62.2146492 C6.09761428 71.34507749 6.09499976 80.47550078 6.09374207 89.60593228 C6.09155167 104.4182806 6.08489192 119.23062342 6.07543945 134.04296875 C6.06626502 148.43457004 6.0591958 162.82616982 6.05493164 177.21777344 C6.05466364 178.11343584 6.05439565 179.00909824 6.05411953 179.93190193 C6.05204019 186.93623 6.05008324 193.9405581 6.04816496 200.94488621 C6.03872571 235.29659585 6.01860873 269.64829174 6 304 C57.15 304 108.3 304 161 304 C161.66 310.6 162.32 317.2 163 324 C140.92112632 324.06942365 118.84227889 324.12297195 96.76331806 324.15543652 C86.511852 324.17091051 76.26045496 324.19201023 66.0090332 324.22631836 C57.07470329 324.25620439 48.14042336 324.27557113 39.20604485 324.28226548 C34.47461935 324.28617909 29.74333687 324.2953877 25.01195717 324.31719017 C20.5591794 324.33754271 16.10660366 324.34383629 11.6537838 324.33932304 C10.01912717 324.3401488 8.38446383 324.34612182 6.74984741 324.35761642 C4.51802653 324.37254157 2.28696852 324.36895397 0.05513 324.36076355 C-1.19389949 324.36352893 -2.44292898 324.36629431 -3.72980785 324.36914349 C-7.39415454 323.95550733 -9.16105207 323.34092511 -12 321 C-16.08424268 315.48224449 -15.41841624 309.23057311 -15.38095093 302.66394043 C-15.3856309 301.4093967 -15.39031087 300.15485297 -15.39513266 298.86229277 C-15.40764514 295.38706721 -15.40147127 291.9120891 -15.39217401 288.43686271 C-15.38538483 284.68629014 -15.39586408 280.93576005 -15.40411377 277.18519592 C-15.41745471 269.84060716 -15.41457177 262.49611036 -15.40587585 255.15151799 C-15.39910113 249.18250151 -15.39818166 243.2135108 -15.4014473 237.24449158 C-15.401907 236.39500095 -15.40236669 235.54551033 -15.40284032 234.67027757 C-15.4037995 232.94456215 -15.40477214 231.21884674 -15.4057581 229.49313134 C-15.41431305 213.31049294 -15.40447621 197.12790552 -15.388357 180.94527549 C-15.37495372 167.05935734 -15.37728178 153.17351444 -15.39111328 139.28759766 C-15.40716723 123.1629279 -15.41348907 107.03830283 -15.40427649 90.91362619 C-15.40332084 89.19425361 -15.40237773 87.47488102 -15.4014473 85.75550842 C-15.40098447 84.90954077 -15.40052164 84.06357312 -15.40004479 83.19197008 C-15.39745435 77.23001484 -15.40182707 71.26808794 -15.40888596 65.30613708 C-15.4172991 58.04065632 -15.41502474 50.7752728 -15.39904372 43.50980318 C-15.39115848 39.80272595 -15.38807365 36.09581085 -15.39799118 32.38873482 C-15.40857718 28.37103519 -15.39593857 24.35374508 -15.38095093 20.33605957 C-15.38764309 19.16310821 -15.39433526 17.99015685 -15.40123022 16.78166151 C-15.32810739 6.70902015 -15.32810739 6.70902015 -12 2 C-7.99745384 -0.66836411 -4.70686701 -0.8340238 0 0 Z " fill="#BE35F6" transform="translate(32,16)"/>
<path d="M0 0 C0.9744104 -0.00953201 1.9488208 -0.01906403 2.95275879 -0.02888489 C4.00797729 -0.02797348 5.0631958 -0.02706207 6.15039062 -0.02612305 C7.23042358 -0.03040817 8.31045654 -0.0346933 9.42321777 -0.03910828 C11.70970965 -0.04485857 13.99621983 -0.04534672 16.28271484 -0.04101562 C19.7923075 -0.03785471 23.30105849 -0.06131021 26.81054688 -0.08666992 C29.02799372 -0.08894263 31.24544285 -0.08964654 33.46289062 -0.08862305 C34.51810913 -0.09783279 35.57332764 -0.10704254 36.66052246 -0.11653137 C38.12213806 -0.10718819 38.12213806 -0.10718819 39.61328125 -0.09765625 C40.47328735 -0.09828568 41.33329346 -0.0989151 42.21936035 -0.0995636 C42.90816284 0.0239296 43.59696533 0.14742279 44.30664062 0.2746582 C46.72778028 3.90636768 46.56003663 5.58552967 46.56733704 9.9105072 C46.57307536 10.92692326 46.57307536 10.92692326 46.5789296 11.96387297 C46.58926622 14.23934009 46.58526628 16.51455519 46.58129883 18.79003906 C46.58564494 20.41944106 46.59082775 22.04884101 46.5967865 23.67823792 C46.61019858 28.10796259 46.61075272 32.53760206 46.6082232 36.96734309 C46.60715498 40.66280671 46.61203302 44.35825299 46.61682862 48.0537129 C46.62793145 56.77052227 46.62835686 65.48728854 46.62231445 74.20410156 C46.61627291 83.20242335 46.62858847 92.20058884 46.64988452 101.19888395 C46.66748627 108.91954768 46.67350414 116.64016161 46.67024678 124.36084467 C46.6684315 128.97424317 46.67109444 133.58753019 46.68496132 138.20091057 C46.69751189 142.53884569 46.69562197 146.87653674 46.68255043 151.214468 C46.68017903 152.80761039 46.68293944 154.4007698 46.69117355 155.99389267 C46.70159558 158.16682229 46.69357791 160.33892604 46.68086243 162.51182556 C46.68103017 163.72838302 46.68119791 164.94494047 46.68137074 166.1983633 C46.27568261 169.52880376 45.65899141 170.92342952 43.30664062 173.2746582 C41.1817627 173.77586365 41.1817627 173.77586365 38.69921875 173.77636719 C37.76815308 173.78574814 36.8370874 173.79512909 35.87780762 173.80479431 C34.37304871 173.78794334 34.37304871 173.78794334 32.83789062 173.77075195 C31.80603638 173.77220718 30.77418213 173.77366241 29.71105957 173.77516174 C27.52886126 173.77350131 25.34665142 173.76192403 23.16455078 173.74121094 C19.81948228 173.71226931 16.47599902 173.72059678 13.13085938 173.73364258 C11.01236207 173.72740499 8.89386978 173.71901389 6.77539062 173.70825195 C5.77221802 173.71118759 4.76904541 173.71412323 3.73547363 173.71714783 C2.80440796 173.70446365 1.87334229 173.69177948 0.9140625 173.67871094 C-0.31479675 173.67060646 -0.31479675 173.67060646 -1.56848145 173.66233826 C-4.33001265 173.15850199 -5.03309904 172.53846604 -6.69335938 170.2746582 C-7.06808949 167.28738308 -7.06808949 167.28738308 -7.06758118 163.54942322 C-7.07155558 162.86223428 -7.07552999 162.17504534 -7.07962483 161.46703249 C-7.08926694 159.15912775 -7.07741874 156.85183308 -7.06567383 154.54394531 C-7.06810115 152.89159414 -7.07181989 151.23924444 -7.07673645 149.5868988 C-7.08615656 145.09527172 -7.07671105 140.60386212 -7.06340432 136.112252 C-7.05210617 131.41797897 -7.05619601 126.72371691 -7.05815125 122.0294342 C-7.05903465 114.14653968 -7.04794335 106.26373108 -7.02954102 98.38085938 C-7.00836535 89.25755518 -7.00486479 80.13437682 -7.01110297 71.01105303 C-7.01679048 62.24540981 -7.0111587 53.47981107 -6.99992943 44.71417427 C-6.99527604 40.9785537 -6.99441277 37.24296026 -6.99651527 33.50733757 C-6.99839396 29.11198432 -6.99032675 24.71675982 -6.97445488 20.32143593 C-6.97019955 18.70488391 -6.96936981 17.08831885 -6.97214508 15.47176361 C-6.97534961 13.27200262 -6.96632939 11.07263053 -6.95405579 8.87290955 C-6.95200292 7.63975982 -6.94995005 6.40661009 -6.94783497 5.13609219 C-6.5121734 0.23732449 -4.38268874 0.02347979 0 0 Z " fill="#905DF0" transform="translate(143.693359375,124.725341796875)"/>
<path d="M0 0 C1.00587158 -0.0038269 2.01174316 -0.00765381 3.0480957 -0.01159668 C5.17302451 -0.01431651 7.29798676 -0.00695041 9.42285156 0.00976562 C12.67588932 0.03117359 15.92671845 0.00996568 19.1796875 -0.015625 C21.24479654 -0.01298174 23.30990421 -0.00785679 25.375 0 C26.34800049 -0.00809692 27.32100098 -0.01619385 28.32348633 -0.02453613 C32.14594501 0.02855828 34.89488447 0.1097469 38.29882812 1.91992188 C40.52170502 6.09993089 40.25755188 10.18096113 40.21875 14.84375 C40.2225769 15.84962158 40.22640381 16.85549316 40.23034668 17.8918457 C40.23306651 20.01677451 40.22570041 22.14173676 40.20898438 24.26660156 C40.18757641 27.51963932 40.20878432 30.77046845 40.234375 34.0234375 C40.23173174 36.08854654 40.22660679 38.15365421 40.21875 40.21875 C40.22684692 41.19175049 40.23494385 42.16475098 40.24328613 43.16723633 C40.14977882 49.89916533 40.14977882 49.89916533 37.77929688 53.14038086 C35.53511495 54.63257325 34.36205241 55.09897374 31.6875 55.09375 C30.6975 55.12662109 30.6975 55.12662109 29.6875 55.16015625 C26.40834125 54.12901453 25.48692999 52.43863694 23.6875 49.53125 C23.0626619 46.09906363 22.99164603 42.70132431 22.9375 39.21875 C22.90785156 38.28740234 22.87820313 37.35605469 22.84765625 36.39648438 C22.77724096 34.10798735 22.72440786 31.82049191 22.6875 29.53125 C21.4738678 30.76819862 21.4738678 30.76819862 20.23571777 32.03013611 C12.60426434 39.80356185 4.95434007 47.55838382 -2.71399689 55.29543209 C-6.65569276 59.27364103 -10.5906211 63.25808887 -14.51074219 67.25756836 C-18.29496082 71.11790895 -22.09608306 74.96083783 -25.9094696 78.79236031 C-27.36046368 80.25627684 -28.80528784 81.72633584 -30.24372864 83.20258904 C-32.26166713 85.27143133 -34.30055863 87.31722796 -36.34570312 89.35913086 C-37.22828293 90.27946106 -37.22828293 90.27946106 -38.12869263 91.21838379 C-41.6068319 94.63742531 -44.3615166 96.47040689 -49.31608582 96.72153759 C-52.82606926 96.38698462 -55.71586124 94.9496895 -58.76660156 93.30834961 C-59.46360168 92.95415451 -60.16060181 92.59995941 -60.87872314 92.23503113 C-62.3804723 91.46855644 -63.87752635 90.69282538 -65.37018585 89.90879631 C-67.73196433 88.66844804 -70.10523495 87.45323044 -72.48284912 86.24354553 C-77.52104391 83.67428514 -82.54208609 81.07253555 -87.5625 78.46875 C-93.39545529 75.44832062 -99.23490519 72.44140258 -105.08739471 69.45898628 C-107.42779794 68.25907875 -109.75735275 67.03975228 -112.0869751 65.81907654 C-113.51618867 65.08675042 -114.94583285 64.35526385 -116.37597656 63.62475586 C-117.02228027 63.27936768 -117.66858398 62.93397949 -118.33447266 62.578125 C-120.33267905 61.52717117 -120.33267905 61.52717117 -123.3125 60.53125 C-126.29739832 61.64062227 -128.26743436 63.24730189 -130.4730835 65.50515747 C-131.07283997 66.11372589 -131.67259644 66.72229431 -132.29052734 67.3493042 C-133.25998291 68.34839813 -133.25998291 68.34839813 -134.24902344 69.36767578 C-135.2840097 70.42149948 -135.2840097 70.42149948 -136.33990479 71.49661255 C-137.83696605 73.02135868 -139.33191782 74.54817822 -140.82500458 76.07681656 C-143.18985211 78.49494464 -145.56337953 80.90420781 -147.94000244 83.3107605 C-154.69668963 90.15295515 -161.44821627 96.99994243 -168.16699219 103.87939453 C-172.2781119 108.08753709 -176.40848447 112.2759155 -180.55213165 116.45202255 C-182.12711532 118.0468097 -183.69475592 119.64888354 -185.25481415 121.25827408 C-187.43787977 123.50881763 -189.64461562 125.73333721 -191.85839844 127.95361328 C-192.49660522 128.62372437 -193.13481201 129.29383545 -193.7923584 129.98425293 C-196.95574428 133.10566818 -199.06378491 134.92883821 -203.62213135 135.04000854 C-207.3125 134.53125 -207.3125 134.53125 -209.8125 132.96875 C-211.99321663 129.42508548 -212.06581723 127.64025306 -211.3125 123.53125 C-209.97217846 121.67821312 -209.97217846 121.67821312 -208.22831726 119.76473999 C-207.59177908 119.06447063 -206.9552409 118.36420128 -206.29941368 117.64271164 C-203.24022123 114.39175637 -200.12951251 111.20076922 -196.97192383 108.04541016 C-196.27506973 107.34519745 -195.57821564 106.64498474 -194.86024475 105.92355347 C-192.5826198 103.63651762 -190.30132611 101.3531875 -188.01953125 99.0703125 C-186.4247879 97.47235245 -184.83011847 95.87431863 -183.23551941 94.2762146 C-179.90626269 90.94099335 -176.57496909 87.6078219 -173.24243164 84.27587891 C-168.97017211 80.00372147 -164.70486152 75.72469729 -160.44124317 71.44391823 C-157.15645584 68.1480294 -153.86715089 64.85667829 -150.57654381 61.5666008 C-149.00125257 59.99012902 -147.42758377 58.4120343 -145.85556984 56.83229446 C-143.66338508 54.63033657 -141.46498479 52.43477589 -139.26489258 50.24072266 C-138.29308044 49.26048126 -138.29308044 49.26048126 -137.30163574 48.26043701 C-136.70043411 47.66342987 -136.09923248 47.06642273 -135.47981262 46.45132446 C-134.70255184 45.67324653 -134.70255184 45.67324653 -133.90958881 44.87944984 C-130.88779726 42.32857173 -128.99970853 41.49689354 -125.0098114 41.69636536 C-121.04949771 42.59063817 -117.72179893 44.01885307 -114.15551758 45.8894043 C-113.47817062 46.23413788 -112.80082367 46.57887146 -112.10295105 46.93405151 C-110.64336658 47.67830163 -109.18608806 48.42708829 -107.73093605 49.17996788 C-105.42831877 50.37031174 -103.11907783 51.54676168 -100.80754089 52.71968079 C-94.24075206 56.05492933 -87.68687167 59.41518865 -81.13696289 62.78344727 C-77.12209707 64.84688429 -73.09961967 66.89479675 -69.07217979 68.93357277 C-67.54001849 69.71334165 -66.01098073 70.49927933 -64.48517799 71.29141808 C-62.35759932 72.39587188 -60.2209829 73.48051225 -58.08129883 74.5612793 C-57.45212555 74.89417465 -56.82295227 75.22707001 -56.17471313 75.5700531 C-52.85521595 77.24349212 -52.85521595 77.24349212 -49.25059509 77.06382751 C-46.49066181 74.88136923 -44.00115451 72.48055415 -41.53417969 69.97998047 C-40.96788849 69.41398132 -40.40159729 68.84798218 -39.81814575 68.26483154 C-37.95210762 66.3974028 -36.09324904 64.52299538 -34.234375 62.6484375 C-32.94015446 61.35048589 -31.64549095 60.05297584 -30.35040283 58.75588989 C-26.94624354 55.34410164 -23.54813366 51.92634948 -20.15124512 48.50732422 C-16.68258593 45.0181908 -13.20824417 41.53472613 -9.734375 38.05078125 C-2.92150698 31.21647632 3.8849842 24.37585797 10.6875 17.53125 C8.71716797 17.47517578 8.71716797 17.47517578 6.70703125 17.41796875 C4.97132636 17.35229343 3.23565053 17.28584663 1.5 17.21875 C0.20352539 17.18491211 0.20352539 17.18491211 -1.11914062 17.15039062 C-6.41628414 16.92713937 -10.37678615 16.46696385 -14.3125 12.53125 C-14.89566336 5.41665701 -14.89566336 5.41665701 -12.93041992 2.43286133 C-8.86581481 -0.51959687 -4.9023375 -0.04079531 0 0 Z " fill="#5C8AEA" transform="translate(289.3125,17.46875)"/>
<path d="M0 0 C0.93106567 -0.00945648 1.86213135 -0.01891296 2.82141113 -0.02865601 C4.32617004 -0.01954697 4.32617004 -0.01954697 5.86132812 -0.01025391 C7.4091095 -0.01455917 7.4091095 -0.01455917 8.98815918 -0.01895142 C11.17033436 -0.02099342 13.35252778 -0.01545411 15.53466797 -0.00292969 C18.87964713 0.01312154 22.22341791 -0.00277432 25.56835938 -0.02197266 C27.68685163 -0.01999025 29.80534314 -0.01614663 31.92382812 -0.01025391 C32.92700073 -0.0163266 33.93017334 -0.02239929 34.96374512 -0.02865601 C36.36034363 -0.01447128 36.36034363 -0.01447128 37.78515625 0 C38.60439575 0.00238678 39.42363525 0.00477356 40.2677002 0.00723267 C42.96378916 0.49059106 43.70674947 1.25640801 45.39257812 3.38818359 C45.76172161 5.45962048 45.76172161 5.45962048 45.75334167 7.88700867 C45.75746567 8.80827545 45.76158966 9.72954224 45.76583862 10.6787262 C45.7550528 11.68717087 45.74426697 12.69561554 45.7331543 13.73461914 C45.73381142 15.32998505 45.73381142 15.32998505 45.73448181 16.95758057 C45.7323884 20.48020659 45.70903075 24.00235926 45.68554688 27.52490234 C45.6799529 29.96441894 45.67568187 32.40393891 45.67268372 34.84346008 C45.66121938 41.26987992 45.63173831 47.69609693 45.59857178 54.12243652 C45.56790524 60.67778784 45.55418568 67.23317187 45.5390625 73.78857422 C45.50687032 86.6551973 45.45622983 99.52167967 45.39257812 112.38818359 C43.94640368 112.22819672 42.50025103 112.06801294 41.05410767 111.90774536 C39.8461148 111.77397334 39.8461148 111.77397334 38.61371803 111.63749886 C36.31661951 111.3796575 34.02253134 111.10172793 31.72851562 110.81787109 C22.12415321 109.71506195 12.8426309 109.30277492 3.18164062 109.83349609 C2.13596924 109.88513916 1.09029785 109.93678223 0.01293945 109.98999023 C-2.52757657 110.11636239 -5.06757193 110.24916606 -7.60742188 110.38818359 C-7.67747423 96.48896579 -7.73019209 82.58977533 -7.76285839 68.69041729 C-7.7785342 62.23682737 -7.79980758 55.78335579 -7.83374023 49.32983398 C-7.86626512 43.10530746 -7.88426045 36.88089498 -7.8920536 30.65629005 C-7.89760946 28.27795427 -7.90845825 25.89962493 -7.92461205 23.52133751 C-7.94629468 20.19776142 -7.94939261 16.87466048 -7.94799805 13.55102539 C-7.95878387 12.5612822 -7.9695697 11.571539 -7.98068237 10.55180359 C-7.97655838 9.64736511 -7.97243439 8.74292664 -7.96818542 7.81108093 C-7.9709508 7.02479152 -7.97371618 6.2385021 -7.97656536 5.42838573 C-7.1496815 0.85831941 -4.22188787 0.01230009 0 0 Z " fill="#449FE6" transform="translate(299.607421875,85.61181640625)"/>
<path d="M0 0 C1.39659851 -0.01407143 1.39659851 -0.01407143 2.82141113 -0.02842712 C3.82458374 -0.01719315 4.82775635 -0.00595917 5.86132812 0.00561523 C6.89318237 0.00416 7.92503662 0.00270477 8.98815918 0.00120544 C11.17035749 0.00286588 13.35256733 0.01444315 15.53466797 0.03515625 C18.87973647 0.06409788 22.22321973 0.05577041 25.56835938 0.04272461 C27.68685668 0.0489622 29.80534897 0.05735329 31.92382812 0.06811523 C32.92700073 0.0651796 33.93017334 0.06224396 34.96374512 0.05921936 C35.89481079 0.07190353 36.82587646 0.08458771 37.78515625 0.09765625 C39.0140155 0.10576073 39.0140155 0.10576073 40.2677002 0.11402893 C42.94166924 0.60188964 43.69488034 1.41394695 45.39257812 3.50170898 C45.68886409 6.42398153 45.80225158 9.1331338 45.78076172 12.05639648 C45.78601868 12.92983704 45.79127563 13.80327759 45.79669189 14.70318604 C45.80991137 17.59454149 45.80114693 20.48534779 45.79101562 23.37670898 C45.7930358 25.38305772 45.79594676 27.38940574 45.79971313 29.39575195 C45.80413913 33.60236598 45.79769653 37.80878901 45.78369141 42.01538086 C45.76659943 47.41278282 45.77643913 52.80973727 45.7944088 58.2071228 C45.80523917 62.35062036 45.80180372 66.49401148 45.79402542 70.63751221 C45.79202135 72.62786919 45.79448993 74.61823577 45.80146408 76.60858154 C45.80906623 79.38832266 45.79749176 82.16733479 45.78076172 84.94702148 C45.78987076 86.18612274 45.78987076 86.18612274 45.79916382 87.45025635 C45.73626721 93.07905365 45.73626721 93.07905365 44.00157356 95.21231174 C41.85400971 96.93330041 40.5185664 96.88773454 37.78515625 96.90576172 C36.85409058 96.91844589 35.9230249 96.93113007 34.96374512 96.94419861 C33.45898621 96.93979515 33.45898621 96.93979515 31.92382812 96.93530273 C30.89197388 96.94054459 29.86011963 96.94578644 28.79699707 96.95118713 C26.61483663 96.95761217 24.43264158 96.95626414 22.25048828 96.94775391 C18.90529979 96.93924136 15.56181668 96.96800402 12.21679688 96.99975586 C10.0983078 97.00136781 7.9798157 97.00079045 5.86132812 96.99780273 C4.85815552 97.00903671 3.85498291 97.02027069 2.82141113 97.03184509 C1.89034546 97.02246414 0.95927979 97.01308319 0 97.00341797 C-1.22885925 97.00316872 -1.22885925 97.00316872 -2.48254395 97.00291443 C-4.60742188 96.50170898 -4.60742188 96.50170898 -6.37112427 94.99964905 C-8.15120226 91.40300039 -8.02532518 87.95891857 -7.99560547 84.03295898 C-8.00086243 83.18048584 -8.00611938 82.3280127 -8.01153564 81.44970703 C-8.02473296 78.63352097 -8.01599854 75.81790074 -8.00585938 73.00170898 C-8.00788019 71.04402559 -8.01079169 69.08634293 -8.01455688 67.12866211 C-8.01897987 63.02637564 -8.01254994 58.92428517 -7.99853516 54.82202148 C-7.98144334 49.56262612 -7.99128465 44.30369003 -8.00925255 39.04431152 C-8.02009102 35.00199928 -8.01664374 30.95979599 -8.00886917 26.91748047 C-8.00686734 24.97818955 -8.00932583 23.03888876 -8.01630783 21.09960938 C-8.0239233 18.38962586 -8.01231682 15.68038701 -7.99560547 12.97045898 C-8.00167816 12.16825928 -8.00775085 11.36605957 -8.01400757 10.53955078 C-7.97745474 7.34135214 -7.80082059 4.8924712 -6.37112427 2.00376892 C-4.11654749 0.08365504 -2.94238293 0.00059681 0 0 Z " fill="#B83BF6" transform="translate(66.607421875,201.498291015625)"/>
<path d="M0 0 C3.85308766 1.57523746 6.44743914 4.17747444 9.31933594 7.09228516 C9.83685928 7.60951645 10.35438263 8.12674774 10.8875885 8.65965271 C12.59130289 10.36475671 14.28782978 12.07682768 15.984375 13.7890625 C17.16649407 14.974913 18.34905645 16.16032174 19.53204346 17.3453064 C22.64028728 20.46117638 25.74247737 23.58300634 28.84344482 26.70611572 C32.01048502 29.89363619 35.18321387 33.0754832 38.35546875 36.2578125 C44.57589403 42.49966976 50.78993537 48.74783485 57 55 C53.42253118 59.25889835 49.76872235 63.3533068 45.8203125 67.27734375 C44.8921875 68.20224609 43.9640625 69.12714844 43.0078125 70.08007812 C42.04693091 71.03260849 41.08599274 71.98508178 40.125 72.9375 C39.14039081 73.91708237 38.156014 74.89689837 37.171875 75.87695312 C34.78351797 78.25360252 32.39284788 80.62787356 30 83 C26.14691234 81.42476254 23.55256086 78.82252556 20.68066406 75.90771484 C20.16314072 75.39048355 19.64561737 74.87325226 19.1124115 74.34034729 C17.40869711 72.63524329 15.71217022 70.92317232 14.015625 69.2109375 C12.83350593 68.025087 11.65094355 66.83967826 10.46795654 65.6546936 C7.35971272 62.53882362 4.25752263 59.41699366 1.15655518 56.29388428 C-2.01048502 53.10636381 -5.18321387 49.9245168 -8.35546875 46.7421875 C-14.57589403 40.50033024 -20.78993537 34.25216515 -27 28 C-21.57226562 22.55479601 -21.57226562 22.55479601 -18.984375 20.2734375 C-11.93251769 13.96712717 -5.7501799 7.54803976 0 0 Z " fill="#5A8CE9" transform="translate(413,388)"/>
<path d="M0 0 C0.91112045 -0.00960754 1.82224091 -0.01921509 2.76097107 -0.02911377 C3.74743118 -0.03336365 4.7338913 -0.03761353 5.75024414 -0.04199219 C7.26685387 -0.0505423 7.26685387 -0.0505423 8.81410217 -0.05926514 C10.95515901 -0.06872134 13.09623043 -0.07525158 15.23730469 -0.07910156 C18.51856734 -0.08881735 21.79920645 -0.11983931 25.08032227 -0.15136719 C27.15779249 -0.15789605 29.23526721 -0.16314698 31.31274414 -0.16699219 C32.29718002 -0.17933899 33.28161591 -0.19168579 34.29588318 -0.20440674 C35.21015579 -0.20140564 36.12442841 -0.19840454 37.06640625 -0.1953125 C37.87089706 -0.19895813 38.67538788 -0.20260376 39.5042572 -0.20635986 C42.16008097 0.25981116 43.03382183 0.98472765 44.59790039 3.16113281 C44.85962793 6.17409518 44.94650152 8.97593849 44.89086914 11.98535156 C44.8866243 12.84675247 44.88237946 13.70815338 44.87800598 14.59565735 C44.86121287 17.34696712 44.82355995 20.09754444 44.78540039 22.84863281 C44.77035435 24.71385661 44.7566658 26.57909189 44.74438477 28.44433594 C44.71130732 33.01688379 44.65952099 37.58888412 44.59790039 42.16113281 C43.52773682 42.6820752 42.45757324 43.20301758 41.35498047 43.73974609 C39.92149909 44.44504475 38.4881569 45.15062635 37.05493164 45.85644531 C36.00215027 46.36751831 36.00215027 46.36751831 34.92810059 46.88891602 C19.83963316 54.34828526 6.59025107 65.3921201 -3.23120117 79.04711914 C-4.24689896 80.44929711 -5.31972802 81.80975693 -6.40209961 83.16113281 C-7.06209961 83.16113281 -7.72209961 83.16113281 -8.40209961 83.16113281 C-8.44842793 73.06029835 -8.48397136 62.95948915 -8.50572395 52.8585701 C-8.51616378 48.16837055 -8.53032666 43.47824367 -8.55297852 38.78808594 C-8.57469972 34.26232946 -8.58666674 29.7366429 -8.5918541 25.21083832 C-8.59555114 23.48365936 -8.60277049 21.75648424 -8.61355972 20.02933502 C-8.62806506 17.61126924 -8.63007796 15.19349287 -8.62915039 12.77539062 C-8.63634094 12.06041412 -8.64353149 11.34543762 -8.65093994 10.60879517 C-8.63587721 6.98298166 -8.51848549 4.18404284 -6.40209961 1.16113281 C-4.05129151 -0.01427124 -2.62094536 0.02226693 0 0 Z " fill="#6F79EC" transform="translate(222.402099609375,162.8388671875)"/>
<path d="M0 0 C6.96482793 3.34646657 11.86076624 8.99709391 15 16 C16.68993166 22.3401574 16.27409885 28.24679116 13 34 C8.95893045 38.48634333 5.26184523 41.73434905 -0.92578125 42.23828125 C-12.19439749 42.48522901 -12.19439749 42.48522901 -17 38 C-20.38945031 34.71855949 -23.72291627 31.39365983 -27 28 C-21.75541414 21.63409696 -15.97902678 15.86429388 -10.125 10.0625 C-9.14039081 9.08291763 -8.156014 8.10310163 -7.171875 7.12304688 C-4.78351797 4.74639748 -2.39284788 2.37212644 0 0 Z " fill="#5293E8" transform="translate(479,454)"/>
</svg>
